<svg xmlns="http://www.w3.org/2000/svg" xmlns:xlink="http://www.w3.org/1999/xlink" width="500" zoomAndPan="magnify" viewBox="0 0 375 374.999991" height="500" preserveAspectRatio="xMidYMid meet" version="1.0"><defs><g/><clipPath id="d0a5e49cd2"><path d="M 24.757812 138.152344 L 354.742188 138.152344 L 354.742188 220.652344 L 24.757812 220.652344 Z M 24.757812 138.152344 " clip-rule="nonzero"/></clipPath><clipPath id="57949357d9"><path d="M 33.035156 145.90625 L 199.238281 145.90625 L 199.238281 212.914062 L 33.035156 212.914062 Z M 33.035156 145.90625 " clip-rule="nonzero"/></clipPath></defs><g clip-path="url(#d0a5e49cd2)"><path stroke-linecap="butt" transform="matrix(0.749494, 0, 0, 0.749893, 24.757049, 138.152247)" fill="none" stroke-linejoin="miter" d="M 0.00101896 0.000129114 L 440.277052 0.000129114 L 440.277052 110.015757 L 0.00101896 110.015757 L 0.00101896 0.000129114 " stroke="#b30638" stroke-width="6" stroke-opacity="1" stroke-miterlimit="4"/></g><g clip-path="url(#57949357d9)"><path fill="#b30638" d="M 33.035156 145.90625 L 199.308594 145.90625 L 199.308594 213.007812 L 33.035156 213.007812 Z M 33.035156 145.90625 " fill-opacity="1" fill-rule="nonzero"/></g><g fill="#ffffff" fill-opacity="1"><g transform="translate(37.291579, 189.579827)"><g><path d="M 3.28125 0 L 12.414062 0 C 16.949219 0 19.777344 -2.410156 19.777344 -6.304688 C 19.777344 -8.84375 18.523438 -10.742188 16.207031 -11.671875 C 18.039062 -12.605469 19.132812 -14.34375 19.132812 -16.53125 C 19.132812 -20.164062 16.304688 -22.511719 11.996094 -22.511719 L 3.28125 -22.511719 Z M 6.109375 -2.636719 L 6.109375 -10.195312 L 12.316406 -10.195312 C 15.242188 -10.195312 16.882812 -8.8125 16.882812 -6.433594 C 16.882812 -4.019531 15.242188 -2.636719 12.347656 -2.636719 Z M 6.109375 -12.765625 L 6.109375 -19.875 L 11.929688 -19.875 C 14.664062 -19.875 16.238281 -18.585938 16.238281 -16.304688 C 16.238281 -14.054688 14.695312 -12.765625 11.929688 -12.765625 Z M 6.109375 -12.765625 "/></g></g></g><g fill="#ffffff" fill-opacity="1"><g transform="translate(61.307008, 189.579827)"><g><path d="M 3.28125 0 L 6.109375 0 L 6.109375 -8.070312 L 11.0625 -8.070312 L 16.5625 0 L 19.96875 0 L 14.3125 -8.359375 C 17.589844 -9.164062 19.617188 -11.640625 19.617188 -15.273438 C 19.617188 -19.746094 16.53125 -22.511719 11.867188 -22.511719 L 3.28125 -22.511719 Z M 6.109375 -10.773438 L 6.109375 -19.808594 L 11.546875 -19.808594 C 14.824219 -19.808594 16.722656 -18.136719 16.722656 -15.273438 C 16.722656 -12.414062 14.824219 -10.773438 11.546875 -10.773438 Z M 6.109375 -10.773438 "/></g></g></g><g fill="#ffffff" fill-opacity="1"><g transform="translate(85.643915, 189.579827)"><g><path d="M 13.507812 0.417969 C 20.355469 0.417969 25.179688 -4.40625 25.179688 -11.253906 C 25.179688 -18.105469 20.355469 -22.929688 13.507812 -22.929688 C 6.65625 -22.929688 1.863281 -18.105469 1.863281 -11.253906 C 1.863281 -4.40625 6.65625 0.417969 13.507812 0.417969 Z M 4.757812 -11.253906 C 4.757812 -16.496094 8.328125 -20.097656 13.507812 -20.097656 C 18.683594 -20.097656 22.253906 -16.496094 22.253906 -11.253906 C 22.253906 -6.011719 18.683594 -2.410156 13.507812 -2.410156 C 8.328125 -2.410156 4.757812 -6.011719 4.757812 -11.253906 Z M 4.757812 -11.253906 "/></g></g></g><g fill="#ffffff" fill-opacity="1"><g transform="translate(115.092321, 189.579827)"><g><path d="M 3.28125 0 L 6.078125 0 L 6.078125 -17.621094 L 18.523438 0 L 21.160156 0 L 21.160156 -22.511719 L 18.394531 -22.511719 L 18.394531 -4.886719 L 5.949219 -22.511719 L 3.28125 -22.511719 Z M 3.28125 0 "/></g></g></g><g fill="#ffffff" fill-opacity="1"><g transform="translate(141.968901, 189.579827)"><g><path d="M 13.25 0.417969 C 18.714844 0.417969 23.152344 -2.894531 24.503906 -7.910156 L 21.515625 -7.910156 C 20.355469 -4.535156 17.171875 -2.410156 13.347656 -2.410156 C 8.328125 -2.410156 4.757812 -6.046875 4.757812 -11.253906 C 4.757812 -16.464844 8.328125 -20.097656 13.347656 -20.097656 C 17.078125 -20.097656 20.132812 -18.105469 21.289062 -14.855469 L 24.3125 -14.855469 C 22.832031 -19.808594 18.554688 -22.929688 13.25 -22.929688 C 6.625 -22.929688 1.863281 -18.039062 1.863281 -11.253906 C 1.863281 -4.46875 6.625 0.417969 13.25 0.417969 Z M 13.25 0.417969 "/></g></g></g><g fill="#ffffff" fill-opacity="1"><g transform="translate(170.645753, 189.579827)"><g><path d="M 13.507812 0.417969 C 20.355469 0.417969 25.179688 -4.40625 25.179688 -11.253906 C 25.179688 -18.105469 20.355469 -22.929688 13.507812 -22.929688 C 6.65625 -22.929688 1.863281 -18.105469 1.863281 -11.253906 C 1.863281 -4.40625 6.65625 0.417969 13.507812 0.417969 Z M 4.757812 -11.253906 C 4.757812 -16.496094 8.328125 -20.097656 13.507812 -20.097656 C 18.683594 -20.097656 22.253906 -16.496094 22.253906 -11.253906 C 22.253906 -6.011719 18.683594 -2.410156 13.507812 -2.410156 C 8.328125 -2.410156 4.757812 -6.011719 4.757812 -11.253906 Z M 4.757812 -11.253906 "/></g></g></g><g fill="#b30638" fill-opacity="1"><g transform="translate(201.749857, 190.023826)"><g><path d="M 7.75 0 L 14.214844 0 L 14.214844 -16.496094 L 21.0625 -16.496094 L 21.0625 -22.511719 L 0.902344 -22.511719 L 0.902344 -16.496094 L 7.75 -16.496094 Z M 7.75 0 "/></g></g></g><g fill="#b30638" fill-opacity="1"><g transform="translate(223.712255, 190.023826)"><g><path d="M 2.378906 0 L 8.875 0 L 8.875 -6.398438 L 11.320312 -6.398438 L 14.535156 0 L 21.898438 0 L 17.75 -7.589844 C 20.128906 -8.90625 21.480469 -11.289062 21.480469 -14.4375 C 21.480469 -19.421875 18.105469 -22.511719 12.636719 -22.511719 L 2.378906 -22.511719 Z M 8.746094 -11.578125 L 8.746094 -17.203125 L 11.769531 -17.203125 C 13.828125 -17.203125 14.953125 -16.207031 14.953125 -14.40625 C 14.953125 -12.605469 13.828125 -11.578125 11.769531 -11.578125 Z M 8.746094 -11.578125 "/></g></g></g><g fill="#b30638" fill-opacity="1"><g transform="translate(246.864417, 190.023826)"><g><path d="M 0.160156 0 L 7.042969 0 L 8.265625 -3.183594 L 15.949219 -3.183594 L 17.171875 0 L 24.085938 0 L 15.339844 -22.511719 L 8.90625 -22.511719 Z M 9.613281 -7.941406 L 12.125 -14.921875 L 14.632812 -7.941406 Z M 9.613281 -7.941406 "/></g></g></g><g fill="#b30638" fill-opacity="1"><g transform="translate(271.10987, 190.023826)"><g><path d="M 2.378906 0 L 8.8125 0 L 8.8125 -11.480469 L 17.363281 0 L 22.640625 0 L 22.640625 -22.511719 L 16.238281 -22.511719 L 16.238281 -11.09375 L 7.6875 -22.511719 L 2.378906 -22.511719 Z M 2.378906 0 "/></g></g></g><g fill="#b30638" fill-opacity="1"><g transform="translate(296.159221, 190.023826)"><g><path d="M 10.453125 0.480469 C 16.046875 0.480469 19.359375 -2.15625 19.359375 -6.59375 C 19.359375 -10.324219 16.945312 -12.507812 11.480469 -13.730469 C 8.585938 -14.375 7.523438 -15.082031 7.523438 -16.238281 C 7.523438 -17.332031 8.488281 -18.007812 10 -18.007812 C 11.800781 -18.007812 12.832031 -17.074219 12.832031 -15.371094 L 18.941406 -15.371094 C 18.941406 -20.003906 15.402344 -22.992188 9.871094 -22.992188 C 4.566406 -22.992188 1.285156 -20.355469 1.285156 -16.109375 C 1.285156 -12.316406 3.761719 -9.96875 8.84375 -9.003906 C 11.578125 -8.457031 12.894531 -7.621094 12.894531 -6.335938 C 12.894531 -5.210938 11.929688 -4.566406 10.355469 -4.566406 C 8.488281 -4.566406 7.394531 -5.5625 7.394531 -7.300781 L 1.125 -7.300781 C 1.125 -2.445312 4.597656 0.480469 10.453125 0.480469 Z M 10.453125 0.480469 "/></g></g></g><g fill="#b30638" fill-opacity="1"><g transform="translate(316.706768, 190.023826)"><g><path d="M 2.378906 0 L 8.875 0 L 8.875 -22.511719 L 2.378906 -22.511719 Z M 2.378906 0 "/></g></g></g><g fill="#b30638" fill-opacity="1"><g transform="translate(327.961296, 190.023826)"><g><path d="M 7.75 0 L 14.214844 0 L 14.214844 -16.496094 L 21.0625 -16.496094 L 21.0625 -22.511719 L 0.902344 -22.511719 L 0.902344 -16.496094 L 7.75 -16.496094 Z M 7.75 0 "/></g></g></g></svg>